{"accessors":[{"bufferView":0,"componentType":5123,"count":37593,"max":[11737],"min":[0],"type":"SCALAR"},{"bufferView":1,"componentType":5126,"count":11738,"max":[13.77544116973877,7.006380081176758,-3.0357420444488525],"min":[-13.77544116973877,-3.3643798828125,-3.2502570152282715],"type":"VEC3"},{"bufferView":2,"componentType":5126,"count":11738,"max":[1.0,0.9999997615814209,6.363618740579113e-05],"min":[-1.0,-0.9999995231628418,-1.0],"type":"VEC3"},{"bufferView":3,"componentType":5126,"count":11738,"max":[1.0,0.21414399147033691,0.9999949932098389,1.0],"min":[-0.38403376936912537,-0.3598635494709015,-1.0,-1.0],"type":"VEC4"},{"bufferView":4,"componentType":5126,"count":11738,"max":[0.992218017578125,0.9293060004711151],"min":[0.007222000043839216,0.021722018718719482],"type":"VEC2"},{"bufferView":5,"componentType":5123,"count":54435,"max":[18366],"min":[0],"type":"SCALAR"},{"bufferView":6,"componentType":5126,"count":18367,"max":[15.974295616149902,15.295368194580078,-2.1167309284210205],"min":[-15.974295616149902,-15.295368194580078,-21.895427703857422],"type":"VEC3"},{"bufferView":7,"componentType":5126,"count":18367,"max":[1.0,1.0000001192092896,1.0],"min":[-1.0,-1.0,-1.0],"type":"VEC3"},{"bufferView":8,"componentType":5126,"count":18367,"max":[1.0,1.0,0.9999766945838928,1.0],"min":[-1.0,-1.0,-0.999931275844574,-1.0],"type":"VEC4"},{"bufferView":9,"componentType":5126,"count":18367,"max":[0.989978015422821,0.9951169998385012],"min":[0.004883000161498785,0.017641007900238037],"type":"VEC2"}],"asset":{"generator":"Soft8Soft Verge3D for Blender add-on","version":"2.0"},"bufferViews":[{"buffer":0,"byteLength":75186,"byteOffset":0,"target":34963},{"buffer":0,"byteLength":140856,"byteOffset":75188,"target":34962},{"buffer":0,"byteLength":140856,"byteOffset":216044,"target":34962},{"buffer":0,"byteLength":187808,"byteOffset":356900,"target":34962},{"buffer":0,"byteLength":93904,"byteOffset":544708,"target":34962},{"buffer":0,"byteLength":108870,"byteOffset":638612,"target":34963},{"buffer":0,"byteLength":220404,"byteOffset":747484,"target":34962},{"buffer":0,"byteLength":220404,"byteOffset":967888,"target":34962},{"buffer":0,"byteLength":293872,"byteOffset":1188292,"target":34962},{"buffer":0,"byteLength":146936,"byteOffset":1482164,"target":34962}],"buffers":[{"byteLength":1629100,"uri":"honor x14.bin"}],"cameras":[{"extensions":{"S8S_v3d_camera_data":{"controls":"ORBIT","enablePan":true,"moveSpeed":1.0,"orbitMaxDistance":15.0,"orbitMaxPolarAngle":3.1415927410125732,"orbitMaxZoom":100.0,"orbitMinDistance":4.0,"orbitMinPolarAngle":0.0,"orbitMinZoom":0.009999999776482582,"orbitTarget":[0.0,0.0,-0.0],"rotateSpeed":1.0,"viewportFitInitialAspect":1.7777777910232544,"viewportFitType":"VERTICAL"}},"name":"Camera","perspective":{"aspectRatio":1.7777777910232544,"yfov":0.8097835779190063,"zfar":100.0,"znear":0.10000000149011612},"type":"perspective"}],"extensionsUsed":["S8S_v3d_texture_data","S8S_v3d_material_data","S8S_v3d_camera_data","S8S_v3d_mesh_data","S8S_v3d_node_data","S8S_v3d_scene_data"],"images":[{"uri":"laptop_v2_base_Base Color.png"},{"uri":"laptop_v2_base_Roughness.png"},{"uri":"laptop_v2_base_Normal.png"},{"uri":"laptop_v2_base_Metalic.png"},{"uri":"laptop_v2_base_AO.png"},{"uri":"laptop_v2_V2_Base Color.png"},{"uri":"laptop_v2_V2_Roughness.png"},{"uri":"laptop_v2_V2_Normal.png"},{"uri":"laptop_v2_V2_Metalic.png"},{"uri":"laptop_v2_V2_AO.png"},{"uri":"environment.hdr"}],"materials":[{"extensions":{"S8S_v3d_material_data":{"nodeGraph":{"edges":[{"fromNode":11,"fromOutput":0,"toInput":0,"toNode":2},{"fromNode":12,"fromOutput":0,"toInput":7,"toNode":2},{"fromNode":13,"fromOutput":0,"toInput":1,"toNode":3},{"fromNode":3,"fromOutput":0,"toInput":20,"toNode":2},{"fromNode":6,"fromOutput":0,"toInput":0,"toNode":11},{"fromNode":6,"fromOutput":0,"toInput":0,"toNode":12},{"fromNode":6,"fromOutput":0,"toInput":0,"toNode":13},{"fromNode":4,"fromOutput":0,"toInput":0,"toNode":6},{"fromNode":5,"fromOutput":2,"toInput":0,"toNode":4},{"fromNode":14,"fromOutput":0,"toInput":4,"toNode":2},{"fromNode":7,"fromOutput":0,"toInput":0,"toNode":15},{"fromNode":2,"fromOutput":0,"toInput":2,"toNode":9},{"fromNode":9,"fromOutput":0,"toInput":0,"toNode":8},{"fromNode":10,"fromOutput":0,"toInput":1,"toNode":9},{"fromNode":15,"fromOutput":0,"toInput":0,"toNode":9}],"nodes":[{"inputs":[],"is_active_output":false,"name":"Frame","outputs":[],"type":"FRAME_BL"},{"inputs":[],"is_active_output":false,"name":"Frame.001","outputs":[],"type":"FRAME_BL"},{"inputs":[[1.0,1.0,1.0,1.0],0.0,[1.0,0.20000000298023224,0.10000000149011612],[0.800000011920929,0.800000011920929,0.800000011920929,1.0],0.0,0.0,0.0,0.528595507144928,0.0,0.0,0.0,0.5,0.0,0.029999999329447746,1.4500000476837158,0.0,0.0,[0.0,0.0,0.0,1.0],1.0,1.0,[0.0,0.0,0.0],[0.0,0.0,0.0],[0.0,0.0,0.0]],"is_active_output":false,"name":"Principled BSDF","outputs":[[0,0,0,0]],"type":"BSDF_PRINCIPLED_BL"},{"inputs":[1.0,[0.5,0.5,1.0,1.0]],"is_active_output":false,"name":"Normal Map","outputs":[[0.0,0.0,0.0]],"type":"NORMAL_MAP_BL","uvLayer":""},{"inputs":[[0.0,0.0,0.0],[0.0,0.0,0.0],[0.0,0.0,0.0],[1.0,1.0,1.0]],"is_active_output":false,"name":"Mapping","outputs":[[0.0,0.0,0.0]],"type":"MAPPING_BL","vectorType":"POINT"},{"inputs":[],"is_active_output":false,"name":"Texture Coordinate","object":-1,"outputs":[[0.0,0.0,0.0],[0.0,0.0,0.0],[0.0,0.0,0.0],[0.0,0.0,0.0],[0.0,0.0,0.0],[0.0,0.0,0.0],[0.0,0.0,0.0]],"type":"TEX_COORD_BL"},{"inputs":[[0.0,0.0,0.0]],"is_active_output":false,"name":"Reroute","outputs":[[0.0,0.0,0.0]],"type":"REROUTE_BL"},{"inputs":[],"is_active_output":false,"name":"UV Map","outputs":[[0.0,0.0,0.0]],"type":"UVMAP_BL","uvLayer":""},{"inputs":[[0,0,0,0],[0,0,0,0],[0.0,0.0,0.0]],"is_active_output":true,"name":"Material Output","outputs":[],"type":"OUTPUT_MATERIAL_BL"},{"inputs":[0.5,[0,0,0,0],[0,0,0,0]],"is_active_output":false,"name":"Mix Shader","outputs":[[0,0,0,0]],"type":"MIX_SHADER_BL"},{"inputs":[[0.0,0.0,0.0,1.0],0.0,[0.0,0.0,0.0]],"is_active_output":false,"name":"Diffuse BSDF","outputs":[[0,0,0,0]],"type":"BSDF_DIFFUSE_BL"},{"inputs":[[0.0,0.0,0.0]],"is_active_output":false,"name":"Image Texture","outputs":[[0.0,0.0,0.0,0.0],0.0],"projection":"FLAT","projectionBlend":0.0,"texture":0,"type":"TEX_IMAGE_BL"},{"inputs":[[0.0,0.0,0.0]],"is_active_output":false,"name":"Image Texture.001","outputs":[[0.0,0.0,0.0,0.0],0.0],"projection":"FLAT","projectionBlend":0.0,"texture":1,"type":"TEX_IMAGE_BL"},{"inputs":[[0.0,0.0,0.0]],"is_active_output":false,"name":"Image Texture.002","outputs":[[0.0,0.0,0.0,0.0],0.0],"projection":"FLAT","projectionBlend":0.0,"texture":2,"type":"TEX_IMAGE_BL"},{"inputs":[[0.0,0.0,0.0]],"is_active_output":false,"name":"Image Texture.003","outputs":[[0.0,0.0,0.0,0.0],0.0],"projection":"FLAT","projectionBlend":0.0,"texture":3,"type":"TEX_IMAGE_BL"},{"inputs":[[0.0,0.0,0.0]],"is_active_output":false,"name":"Image Texture.004","outputs":[[0.0,0.0,0.0,0.0],0.0],"projection":"FLAT","projectionBlend":0.0,"texture":4,"type":"TEX_IMAGE_BL"}]},"useCastShadows":true}},"name":"base"},{"extensions":{"S8S_v3d_material_data":{"nodeGraph":{"edges":[{"fromNode":11,"fromOutput":0,"toInput":0,"toNode":2},{"fromNode":12,"fromOutput":0,"toInput":7,"toNode":2},{"fromNode":13,"fromOutput":0,"toInput":1,"toNode":3},{"fromNode":3,"fromOutput":0,"toInput":20,"toNode":2},{"fromNode":5,"fromOutput":0,"toInput":0,"toNode":11},{"fromNode":5,"fromOutput":0,"toInput":0,"toNode":12},{"fromNode":5,"fromOutput":0,"toInput":0,"toNode":13},{"fromNode":4,"fromOutput":0,"toInput":0,"toNode":5},{"fromNode":6,"fromOutput":2,"toInput":0,"toNode":4},{"fromNode":7,"fromOutput":0,"toInput":0,"toNode":15},{"fromNode":2,"fromOutput":0,"toInput":2,"toNode":8},{"fromNode":8,"fromOutput":0,"toInput":0,"toNode":9},{"fromNode":10,"fromOutput":0,"toInput":1,"toNode":8},{"fromNode":15,"fromOutput":0,"toInput":0,"toNode":8},{"fromNode":14,"fromOutput":0,"toInput":4,"toNode":2}],"nodes":[{"inputs":[],"is_active_output":false,"name":"Frame","outputs":[],"type":"FRAME_BL"},{"inputs":[],"is_active_output":false,"name":"Frame.001","outputs":[],"type":"FRAME_BL"},{"inputs":[[0.800000011920929,0.800000011920929,0.800000011920929,1.0],0.0,[1.0,0.20000000298023224,0.10000000149011612],[0.800000011920929,0.800000011920929,0.800000011920929,1.0],0.0,0.05090909078717232,0.0,1.0,0.0,0.0,0.0,0.5,0.0,0.029999999329447746,1.4500000476837158,0.0,0.0,[0.0,0.0,0.0,1.0],1.0,1.0,[0.0,0.0,0.0],[0.0,0.0,0.0],[0.0,0.0,0.0]],"is_active_output":false,"name":"Principled BSDF","outputs":[[0,0,0,0]],"type":"BSDF_PRINCIPLED_BL"},{"inputs":[1.0,[0.5,0.5,1.0,1.0]],"is_active_output":false,"name":"Normal Map","outputs":[[0.0,0.0,0.0]],"type":"NORMAL_MAP_BL","uvLayer":""},{"inputs":[[0.0,0.0,0.0],[0.0,0.0,0.0],[0.0,0.0,0.0],[1.0,1.0,1.0]],"is_active_output":false,"name":"Mapping","outputs":[[0.0,0.0,0.0]],"type":"MAPPING_BL","vectorType":"POINT"},{"inputs":[[0.0,0.0,0.0]],"is_active_output":false,"name":"Reroute","outputs":[[0.0,0.0,0.0]],"type":"REROUTE_BL"},{"inputs":[],"is_active_output":false,"name":"Texture Coordinate","object":-1,"outputs":[[0.0,0.0,0.0],[0.0,0.0,0.0],[0.0,0.0,0.0],[0.0,0.0,0.0],[0.0,0.0,0.0],[0.0,0.0,0.0],[0.0,0.0,0.0]],"type":"TEX_COORD_BL"},{"inputs":[],"is_active_output":false,"name":"UV Map","outputs":[[0.0,0.0,0.0]],"type":"UVMAP_BL","uvLayer":""},{"inputs":[0.5,[0,0,0,0],[0,0,0,0]],"is_active_output":false,"name":"Mix Shader","outputs":[[0,0,0,0]],"type":"MIX_SHADER_BL"},{"inputs":[[0,0,0,0],[0,0,0,0],[0.0,0.0,0.0]],"is_active_output":true,"name":"Material Output","outputs":[],"type":"OUTPUT_MATERIAL_BL"},{"inputs":[[0.0,0.0,0.0,1.0],0.0,[0.0,0.0,0.0]],"is_active_output":false,"name":"Diffuse BSDF","outputs":[[0,0,0,0]],"type":"BSDF_DIFFUSE_BL"},{"inputs":[[0.0,0.0,0.0]],"is_active_output":false,"name":"Image Texture","outputs":[[0.0,0.0,0.0,0.0],0.0],"projection":"FLAT","projectionBlend":0.0,"texture":5,"type":"TEX_IMAGE_BL"},{"inputs":[[0.0,0.0,0.0]],"is_active_output":false,"name":"Image Texture.001","outputs":[[0.0,0.0,0.0,0.0],0.0],"projection":"FLAT","projectionBlend":0.0,"texture":6,"type":"TEX_IMAGE_BL"},{"inputs":[[0.0,0.0,0.0]],"is_active_output":false,"name":"Image Texture.002","outputs":[[0.0,0.0,0.0,0.0],0.0],"projection":"FLAT","projectionBlend":0.0,"texture":7,"type":"TEX_IMAGE_BL"},{"inputs":[[0.0,0.0,0.0]],"is_active_output":false,"name":"Image Texture.004","outputs":[[0.0,0.0,0.0,0.0],0.0],"projection":"FLAT","projectionBlend":0.0,"texture":8,"type":"TEX_IMAGE_BL"},{"inputs":[[0.0,0.0,0.0]],"is_active_output":false,"name":"Image Texture.003","outputs":[[0.0,0.0,0.0,0.0],0.0],"projection":"FLAT","projectionBlend":0.0,"texture":9,"type":"TEX_IMAGE_BL"}]},"useCastShadows":true}},"name":"V2"},{"extensions":{"S8S_v3d_material_data":{"nodeGraph":{"edges":[{"fromNode":0,"fromOutput":0,"toInput":0,"toNode":1},{"fromNode":4,"fromOutput":0,"toInput":1,"toNode":2},{"fromNode":3,"fromOutput":0,"toInput":0,"toNode":2},{"fromNode":2,"fromOutput":0,"toInput":0,"toNode":0}],"nodes":[{"inputs":[[0.05087608844041824,0.05087608844041824,0.05087608844041824,1.0],1.0],"is_active_output":false,"name":"Background","outputs":[[0,0,0,0]],"type":"BACKGROUND_BL"},{"inputs":[[0,0,0,0],[0,0,0,0]],"is_active_output":true,"name":"World Output","outputs":[],"type":"OUTPUT_WORLD_BL"},{"blendType":"MIX","inputs":[0.5,[0.5,0.5,0.5,1.0],[0.05126946419477463,0.05126946419477463,0.05126946419477463,1.0]],"is_active_output":false,"name":"Mix","outputs":[[0.0,0.0,0.0,0.0]],"type":"MIX_RGB_BL","useClamp":false},{"inputs":[],"is_active_output":false,"name":"Light Path","outputs":[0.0,0.0,0.0,0.0,0.0,0.0,0.0,0.0,0.0,0.0,0.0,0.0,0.0],"type":"LIGHT_PATH_BL"},{"inputs":[[0.0,0.0,0.0]],"is_active_output":false,"name":"Environment Texture","outputs":[[0.0,0.0,0.0,0.0]],"projection":"EQUIRECTANGULAR","texture":10,"type":"TEX_ENVIRONMENT_BL"}]},"useCastShadows":true}},"name":"Verge3D_Environment_World"}],"meshes":[{"extensions":{"S8S_v3d_mesh_data":{"colorLayers":{},"uvLayers":{"UVMap":"TEXCOORD_0"}}},"name":"model","primitives":[{"attributes":{"NORMAL":2,"POSITION":1,"TANGENT":3,"TEXCOORD_0":4},"indices":0,"material":1,"mode":4},{"attributes":{"NORMAL":7,"POSITION":6,"TANGENT":8,"TEXCOORD_0":9},"indices":5,"material":0,"mode":4}]}],"nodes":[{"extensions":{"S8S_v3d_node_data":{"frustumCulling":true,"groupNames":[],"hidden":false,"renderOrder":0,"useShadows":true}},"mesh":0,"name":"model","rotation":[0.7071068286895752,0.0,-0.0,0.7071067094802856],"scale":[0.10000000149011612,0.10000000149011612,0.10000000149011612]},{"camera":0,"extensions":{"S8S_v3d_node_data":{"frustumCulling":true,"groupNames":["Collection 1"],"hidden":false,"renderOrder":0}},"name":"Camera","rotation":[-0.2978596091270447,0.2621133327484131,0.0854249894618988,0.9139358997344971],"scale":[1.0,0.9999998807907104,0.9999998807907104],"translation":[5.0,6.880000114440918,8.0]}],"samplers":[{}],"scene":0,"scenes":[{"extensions":{"S8S_v3d_scene_data":{"aaMethod":"MSAA4","iblEnvironmentMode":"PMREM","physicallyCorrectLights":true,"pmremMaxTileSize":256,"shadowMap":{"esmDistanceScale":1.0,"renderReverseSided":false,"renderSingleSided":true,"type":"PCFPOISSON"},"worldMaterial":2}},"extras":{"animFrameRate":24,"coordSystem":"Z_UP_RIGHT"},"name":"Scene","nodes":[0,1]}],"textures":[{"extensions":{"S8S_v3d_texture_data":{"anisotropy":16,"colorSpace":"srgb"}},"name":"laptop_v2_base_Base Color.png","sampler":0,"source":0},{"extensions":{"S8S_v3d_texture_data":{"anisotropy":16,"colorSpace":"linear"}},"name":"laptop_v2_base_Roughness.png","sampler":0,"source":1},{"extensions":{"S8S_v3d_texture_data":{"anisotropy":16,"colorSpace":"non-color"}},"name":"laptop_v2_base_Normal.png","sampler":0,"source":2},{"extensions":{"S8S_v3d_texture_data":{"anisotropy":16,"colorSpace":"non-color"}},"name":"laptop_v2_base_Metalic.png","sampler":0,"source":3},{"extensions":{"S8S_v3d_texture_data":{"anisotropy":16,"colorSpace":"srgb"}},"name":"laptop_v2_base_AO.png","sampler":0,"source":4},{"extensions":{"S8S_v3d_texture_data":{"anisotropy":16,"colorSpace":"srgb"}},"name":"laptop_v2_V2_Base Color.png","sampler":0,"source":5},{"extensions":{"S8S_v3d_texture_data":{"anisotropy":16,"colorSpace":"non-color"}},"name":"laptop_v2_V2_Roughness.png","sampler":0,"source":6},{"extensions":{"S8S_v3d_texture_data":{"anisotropy":16,"colorSpace":"non-color"}},"name":"laptop_v2_V2_Normal.png","sampler":0,"source":7},{"extensions":{"S8S_v3d_texture_data":{"anisotropy":16,"colorSpace":"srgb"}},"name":"laptop_v2_V2_Metalic.png","sampler":0,"source":8},{"extensions":{"S8S_v3d_texture_data":{"anisotropy":16,"colorSpace":"srgb"}},"name":"laptop_v2_V2_AO.png","sampler":0,"source":9},{"extensions":{"S8S_v3d_texture_data":{"colorSpace":"linear"}},"name":"environment.hdr","sampler":0,"source":10}]}
