<svg xmlns="http://www.w3.org/2000/svg" viewBox="0 0 1200 107.56"><defs><style>.cls-1{fill:#fff;}</style></defs><g id="Capa_2" data-name="Capa 2"><g id="Layer_1" data-name="Layer 1"><path class="cls-1" d="M930.5,0H938q0,26.94,0,53.88Q949.6,42.35,961.39,31c3.63,0,7.26,0,10.9,0-8.38,7.83-17,15.41-25.44,23.17,9.44,9.13,18.7,18.45,28.24,27.5-3.75.09-7.49,0-11.22.06C955.13,73,946.7,64,938,55.18c0,8.86,0,17.72,0,26.58-2.52,0-5,0-7.52,0Q930.54,40.87,930.5,0Z"/><path class="cls-1" d="M108.62,4.52c17.46-3.17,36.17,7.17,42.67,23.7a39.54,39.54,0,0,1-5,38.89C136,81.18,115.9,86.5,99.92,79.67A39.43,39.43,0,0,1,76.67,52.23a40.13,40.13,0,0,1,1.71-23.35A39.34,39.34,0,0,1,108.62,4.52Zm1,14C96.62,21,87.27,34.81,89.93,47.8,92.05,61,105.85,71,119.07,68.42c13.58-1.91,23.84-16.24,20.9-29.72C137.77,25,123.08,15.17,109.59,18.48Z"/><path class="cls-1" d="M280.61,4.6a39.37,39.37,0,0,1,38.88,61.6C309.05,81.43,287.31,87,270.75,78.94A39.33,39.33,0,0,1,280.61,4.6Zm1.84,13.8c-13.48,2.39-23.11,17-19.85,30.31a25.74,25.74,0,0,0,19,19.33A25.09,25.09,0,0,0,305,61.7a25.24,25.24,0,0,0-3.36-39.46A25.11,25.11,0,0,0,282.45,18.4Z"/><path class="cls-1" d="M0,5H13.75q0,15.5,0,31h30c0-10.34,0-20.68,0-31,4.57,0,9.15,0,13.73,0q0,38.37,0,76.74H43.75q0-16,0-32-15,0-30,0c0,10.66,0,21.33,0,32H0Z"/><path class="cls-1" d="M172.25,5c3.73,0,7.46,0,11.19,0,10.89,15.69,21.68,31.47,32.7,47.07.25-15.7,0-31.4.11-47.09H230q0,38.39,0,76.76H219.17c-11-15.83-21.85-31.72-32.94-47.45.05,15.81,0,31.63,0,47.45h-14Q172.26,43.38,172.25,5Z"/><path class="cls-1" d="M344.76,5c9.42,0,18.85,0,28.28,0a25.57,25.57,0,0,1,16.34,5.45,24.8,24.8,0,0,1,9.4,20.31c-.06,10.3-7.35,19.87-17.08,23.07,7.8,9.27,15.52,18.6,23.28,27.91-6.05,0-12.09,0-18.13,0-9.3-11.27-18.74-22.42-28.08-33.66,0,11.22,0,22.44,0,33.65h-14Q344.75,43.38,344.76,5Zm14,14c0,7.42,0,14.84,0,22.26,5.07-.06,10.13.11,15.19-.07a11.41,11.41,0,0,0,10.56-8.48c1.7-6.17-3-13.08-9.39-13.64C369.67,18.9,364.21,19.07,358.77,19Z"/><path class="cls-1" d="M738.5,5.26c8.82,0,17.65-.06,26.47,0,6.4.57,13.31,2.51,17.64,7.56,5.16,7.12,5,18.58-2.05,24.47a18.54,18.54,0,0,1-7.5,3.9c6.3.81,12.37,4.52,15.09,10.4,3.09,7.12,2.31,16.32-3.34,22-5.9,6-14.64,8-22.8,8.13-7.85,0-15.7.07-23.55,0C738.55,56.22,738.47,30.74,738.5,5.26Zm8,6.75c0,8.84,0,17.68,0,26.52,8.53-.72,17.88,1.85,25.73-2.54,8-4,7.88-17.73-.42-21.34C764,10.67,754.93,12.41,746.51,12Zm0,33.25v29.5c9.84-.46,20.7,1.75,29.52-3.78,8.34-5,7.48-19.11-1.21-23.26S755.9,45.9,746.5,45.26Z"/><path class="cls-1" d="M450.24,5.26c4.05,0,8.11,0,12.17,0,8.59,20.86,17,41.78,25.7,62.61q12.74-31.3,25.48-62.61,6.06,0,12.11,0c.12,25.5,0,51,.06,76.53h-8c0-22.05,0-44.11,0-66.16q-13.89,33-27.55,66.16-2.18,0-4.32,0c-9.16-22.13-18.42-44.21-27.59-66.33V81.76h-8Q450.26,43.52,450.24,5.26Z"/><path class="cls-1" d="M1007.85,5.24c3.37,0,6.76,0,10.14,0,6.84,10.19,13.78,20.31,20.64,30.49Q1049,20.62,1059.16,5.31c3.25-.08,6.5-.06,9.77,0-8.41,12.14-16.94,24.21-25.3,36.38q14.11,20,28.1,40.09c-3.35,0-6.68,0-10,.05-7.83-11.39-15.54-22.85-23.24-34.33-7.77,11.42-15.36,23-23.2,34.33-3.34-.05-6.67,0-10,0,9.3-13.48,18.76-26.84,28.09-40.29C1024.88,29.39,1016.33,17.34,1007.85,5.24Z"/><path class="cls-1" d="M1100.59,21.13c6.48-5.25,12.92-10.56,19.35-15.87h7.31v76.5h-8q0-33.26,0-66.52-6.9,5.76-13.69,11.65C1103.86,25,1102.17,23.1,1100.59,21.13Z"/><path class="cls-1" d="M1178.33,5.36c3.55-.14,7.1-.12,10.67-.1v51h11v7h-11q0,9.26,0,18.5h-7.76c0-6.16,0-12.32,0-18.48-11.67,0-23.34,0-35,0,.23-2.84-.61-5.94.56-8.6C1157.22,38.17,1168,21.89,1178.33,5.36Zm-23.62,50.89c8.84,0,17.69,0,26.54,0-.06-13.9.11-27.8-.1-41.69C1172,28.22,1163.59,42.4,1154.71,56.25Z"/><path class="cls-1" d="M664.25,7c3.71-2.07,8.71,1.65,7.66,5.8-.59,3.66-5.44,5.61-8.36,3.29C660.35,14,660.78,8.54,664.25,7Z"/><path class="cls-1" d="M541.73,37.14c6.45-6.59,16.54-8.37,25.36-6.95,7.22,1.23,13.57,7.09,14.21,14.58.79,12.31-.69,24.73,1,37-2.25-.21-4.79.5-6.86-.4a76.91,76.91,0,0,1-.77-7.7c-6,9.78-20.33,12.14-29.74,6.12-8.57-5.48-8.33-20.68,1.22-25,8.59-4.49,18.71-3.87,28.12-4.26.36-4.73-.92-10.29-5.48-12.64-7.54-3.73-16.83-1.18-22.9,4.21C544.53,40.4,543.15,38.75,541.73,37.14Zm9.37,22.69c-5.69,2.52-6.1,11.6-.78,14.72,6.74,4.11,16.68,2.29,21.06-4.45,2.89-3.9,3.08-8.93,2.87-13.58C566.48,56.53,558.28,56.52,551.1,59.83Z"/><path class="cls-1" d="M594.17,50.63A25.26,25.26,0,0,1,613,30.46c9.23-2.29,20.61.45,25.69,9A60.81,60.81,0,0,0,639,31h7.75q0,24.37,0,48.76c0,6.27-1,12.88-4.87,18-4.21,6-11.55,9-18.69,9.56a34.7,34.7,0,0,1-28.57-10.1c1.91-1.86,3.72-3.82,5.47-5.83,5.95,7,15.66,10.88,24.78,8.89a15.82,15.82,0,0,0,12.27-9.43c2.74-5.89,1.61-12.51,1.86-18.76-8.92,12.7-29.8,12.55-39.52.9C594.25,67,592.86,58.37,594.17,50.63Zm19.24-13.24c-12.14,4.49-15.3,21.74-7.28,31.27,6.93,8.78,21.86,8.63,29.07.28,6.93-7.73,6.2-20.9-1.63-27.76C628.37,36,620.13,34.84,613.41,37.39Z"/><path class="cls-1" d="M684,49.77a25.19,25.19,0,0,1,20.06-19.49c9.06-1.86,19.63.65,25.38,8.3-2,1.42-4,2.83-6,4.23-5.79-8.49-19.14-8.75-26.08-1.62-5.52,5.13-7.07,13.41-5.45,20.56,1.48,7.59,8.11,14,15.91,14.58a17,17,0,0,0,16.21-6.45,60.1,60.1,0,0,1,5.78,4.42c-10.07,12.35-31.63,11.36-41.13-1.19C683.57,66.63,682.33,57.72,684,49.77Z"/><path class="cls-1" d="M820.49,30.39c8.61-1.77,18.34-.29,25,5.77,11.21,9.39,11.8,28.38,1.7,38.78-10.27,10.92-29.93,10.83-40.05-.26-9.41-10-9.22-27.4.42-37.14A25.65,25.65,0,0,1,820.49,30.39Zm-.17,6.89C807.79,42,804.55,59.9,812.83,69.79c6.3,8.16,19.72,9,27.12,1.91,8.93-8.14,8.42-24.32-1.14-31.77C833.7,35.79,826.39,35.14,820.32,37.28Z"/><path class="cls-1" d="M883.55,30.43c8.6-1.82,18.34-.32,25.05,5.67,10.83,9.12,11.88,27.32,2.58,37.86-9.69,11.5-29.31,12.17-40,1.67-10.7-10.06-10.49-29.41.61-39.11A24.05,24.05,0,0,1,883.55,30.43Zm-.19,6.92c-8.43,3.14-12.9,12.76-11.81,21.39.5,7.95,6.33,15.55,14.26,17.24A19.25,19.25,0,0,0,903,71.8c8.57-7.87,8.63-23.12,0-30.95C897.88,35.93,889.85,35,883.36,37.35Z"/><path class="cls-1" d="M663,31c2.49,0,5,0,7.51,0,0,16.91,0,33.82,0,50.73q-3.76,0-7.5,0Q663,56.38,663,31Z"/></g></g></svg>