<svg xmlns="http://www.w3.org/2000/svg" viewBox="0 0 106.12 15.47"><defs><style>.cls-1,.cls-2,.cls-3{fill:#fff;}.cls-1{fill-rule:evenodd;}.cls-3{stroke:#fff;stroke-linecap:round;stroke-miterlimit:10;stroke-width:0.43px;}</style></defs><g id="Capa_2" data-name="Capa 2"><g id="Capa_1-2" data-name="Capa 1"><path class="cls-1" d="M15.21,4.7a3,3,0,1,1-3,3A3,3,0,0,1,15.21,4.7Zm0,1a2,2,0,1,1-2,2,2,2,0,0,1,2-2Z"/><path class="cls-2" d="M10.71,10.72H9.57V8.21H7.29v2.51H6.15V4.79H7.29V7.07H9.57V4.79h1.14Zm13.57,0H23.4L20.87,7v3.73H19.76V4.81h.89L23.2,8.35l0-3.56h1.11Zm9.06-5.93h2.49a1.85,1.85,0,0,1,1.29.61,2,2,0,0,1,.45,1.2,2.38,2.38,0,0,1-.24,1.13,1.84,1.84,0,0,1-1,.79L38,10.72H36.63L34.4,8.13v2.59H33.34V4.79Zm1.14,1V7.56h1a.89.89,0,0,0,1-.88.92.92,0,0,0-.89-.86Z"/><path class="cls-1" d="M28.82,4.7a3,3,0,1,1-3,3A3,3,0,0,1,28.82,4.7Zm0,1a2,2,0,1,1-2,2,2,2,0,0,1,2-2Z"/><path class="cls-2" d="M48.17,11h-.68l2.65-6.14h.61L53.38,11h-.69L52,9.35H48.84Zm.9-2.18h2.71L50.43,5.51Z"/><path class="cls-2" d="M56.41,7.87a1.09,1.09,0,0,0-1-.58c-.43,0-.86.18-.86.64s.3.55,1,.69c.95.2,1.4.55,1.4,1.19,0,.92-.78,1.25-1.52,1.25a1.92,1.92,0,0,1-1.61-.78l.47-.35a1.36,1.36,0,0,0,1.13.63c.5,0,1-.18,1-.71s-.42-.6-1.19-.78C54.68,9,54,8.75,54,8s.72-1.18,1.45-1.18a1.64,1.64,0,0,1,1.42.73Z"/><path class="cls-2" d="M61.79,9.09H58.43a1.47,1.47,0,0,0,1.48,1.47,1.53,1.53,0,0,0,1.3-.7l.44.35a2.11,2.11,0,0,1-1.74.85,2.06,2.06,0,0,1-2.1-2.13,2,2,0,0,1,2-2.13,1.86,1.86,0,0,1,1.94,2C61.8,8.89,61.8,9,61.79,9.09Zm-.59-.47a1.28,1.28,0,0,0-1.34-1.33,1.44,1.44,0,0,0-1.42,1.33Z"/><path class="cls-2" d="M65.23,7.87a1.12,1.12,0,0,0-1-.58c-.42,0-.86.18-.86.64s.31.55,1,.69c1,.2,1.41.55,1.41,1.19,0,.92-.78,1.25-1.53,1.25a1.9,1.9,0,0,1-1.6-.78l.47-.35a1.34,1.34,0,0,0,1.12.63c.51,0,1-.18,1-.71s-.43-.6-1.2-.78C63.49,9,62.81,8.75,62.81,8s.71-1.18,1.45-1.18a1.66,1.66,0,0,1,1.42.73Z"/><path class="cls-2" d="M68.79,11.06a2.08,2.08,0,0,1-2.16-2.13,2.16,2.16,0,0,1,4.32,0A2.08,2.08,0,0,1,68.79,11.06Zm0-3.77a1.53,1.53,0,0,0-1.54,1.64,1.54,1.54,0,1,0,3.08,0A1.53,1.53,0,0,0,68.79,7.29Z"/><path class="cls-2" d="M72.19,6.9h.56c0,.22,0,.52,0,.7h0a1.45,1.45,0,0,1,1.31-.8,1.67,1.67,0,0,1,.39,0l-.08.56A1.45,1.45,0,0,0,74,7.35c-.62,0-1.19.45-1.19,1.53V11h-.59V7.8C72.22,7.58,72.21,7.18,72.19,6.9Z"/><path class="cls-2" d="M79.18,11h-.65L76.87,6.9h.66l1.32,3.44h0L80.19,6.9h.64Z"/><path class="cls-2" d="M82.05,5.76a.42.42,0,0,1-.41-.42.41.41,0,0,1,.41-.41.42.42,0,0,1,.42.41A.43.43,0,0,1,82.05,5.76Zm.3,5.2h-.59V6.9h.59Z"/><path class="cls-2" d="M83.88,6.9h.57c0,.22,0,.52,0,.7h0a1.45,1.45,0,0,1,1.3-.8,1.56,1.56,0,0,1,.39,0l-.08.56a1.42,1.42,0,0,0-.41-.05c-.63,0-1.19.45-1.19,1.53V11h-.59V7.8C83.92,7.58,83.91,7.18,83.88,6.9Z"/><path class="cls-2" d="M88.77,7.4H87.62V9.76c0,.61.26.75.61.75a1.14,1.14,0,0,0,.51-.13l0,.51a1.9,1.9,0,0,1-.7.12,1,1,0,0,1-1-1.08V7.4h-.84V6.9H87V5.76h.59V6.9h1.15Z"/><path class="cls-2" d="M92.64,11c0-.22,0-.52,0-.69h0a1.58,1.58,0,0,1-1.38.79,1.47,1.47,0,0,1-1.55-1.67V6.9h.59V9.15c0,.85.25,1.42,1.11,1.42.62,0,1.23-.5,1.23-1.59V6.9h.59v3.17c0,.21,0,.61,0,.89Z"/><path class="cls-2" d="M97.29,8.34a1,1,0,0,0-1.09-1,1.7,1.7,0,0,0-1.2.48l-.33-.39a2.26,2.26,0,0,1,1.59-.58,1.42,1.42,0,0,1,1.58,1.47v1.78a6,6,0,0,0,.07.91h-.53a4.62,4.62,0,0,1-.06-.66h0a1.61,1.61,0,0,1-1.47.76,1.27,1.27,0,0,1-1.4-1.23c0-1.25,1.37-1.36,2.86-1.36Zm-.18.59c-1,0-2.08.11-2.08.88,0,.58.5.77,1,.77a1.27,1.27,0,0,0,1.3-1.35v-.3Z"/><path class="cls-2" d="M100,11h-.59V4.4H100Z"/><line class="cls-3" x1="43.62" y1="4.82" x2="43.62" y2="10.6"/><path class="cls-2" d="M98.39,15.47H7.73A7.74,7.74,0,0,1,7.73,0H98.39a7.74,7.74,0,0,1,0,15.47ZM7.73.89a6.85,6.85,0,0,0,0,13.69H98.39a6.85,6.85,0,0,0,0-13.69Z"/></g></g></svg>